<svg id="wpforms-text-logo" xmlns="http://www.w3.org/2000/svg" viewBox="0 0 407.58 131.44"><defs><style>.cls-1{fill:#5f5e5e;}</style></defs><title>wpforms-text-logo</title><path class="cls-1" d="M33.73,97.43a2.79,2.79,0,0,0-.22.58,3,3,0,0,1-.22.58l0.14-.14a17.42,17.42,0,0,1-1.15,3,3.77,3.77,0,0,1-2.16,1.66,22.15,22.15,0,0,1-2.81.22q-2.09.07-6.12,0.36a13.73,13.73,0,0,1-2.81-3.24,12.79,12.79,0,0,1-1.8-3.82q-1-3.6-2.23-8.14t-2.59-9.51q-1.37-5-2.81-10.23T6.2,58.52Q3.75,49.44,2.23,44A50.37,50.37,0,0,0,0,37q1-1.73,4.32-2.67a39.26,39.26,0,0,1,9.94-.94,5.91,5.91,0,0,1,1.8,2.23A12.78,12.78,0,0,1,17,38.34q1.87,8.36,4.18,17.58,0.72,2.89,1.23,5.77T23.49,67q0.57,3.17,1,5.12t0.72,3.39L25.73,78q0.22,1.08.65,2.52,0.72-2.74,1.66-6.92t2.09-8.79q0.29-1.3,1.23-4.9t1.87-7.71q0.94-4.11,1.8-7.71t1.15-4.9a3.34,3.34,0,0,0,.29-1.15V36.61A8.34,8.34,0,0,1,38.12,36a27,27,0,0,1,3.39-.86q1.87-.36,3.82-0.58a8.17,8.17,0,0,1,3,.07A7.46,7.46,0,0,1,49.94,37,27.42,27.42,0,0,1,51,40.5q1.15,5.19,2.67,11.39t3.1,13q0.57,2.45,1,4.76t1,4.47q0.43,1.88.65,2.74c0.14,0.58.26,1,.36,1.3A5.9,5.9,0,0,1,60,79a14.74,14.74,0,0,0,.36,1.44q1.44-5.19,2.81-11.75t3-13.76q1.3-5.33,2.31-9.87t1.73-8.29a1.94,1.94,0,0,0,.14-1,5,5,0,0,1,.72-1.44,3.08,3.08,0,0,1,1.58-.79q0.72-.07,1.59-0.07t2.38,0.14q1.51,0.15,3,.36L82.3,34.3a6,6,0,0,1,1.44.29,1.85,1.85,0,0,1,.65.72L84.75,36a5,5,0,0,1-.07,1.87q-0.22,1-.65,2.59l-0.58,1.44,0.14-.14q-1.3,4.32-2.74,9.66t-3,11.1q-2.45,8.94-5,18.23T68,97.43a2.81,2.81,0,0,0-.22.58,2.92,2.92,0,0,1-.22.58l0.14-.14a12.32,12.32,0,0,1-1,3,3.76,3.76,0,0,1-2.16,1.66,22.79,22.79,0,0,1-2.88.22q-2.16.07-6.05,0.36a13.73,13.73,0,0,1-2.81-3.24,16.74,16.74,0,0,1-1.95-3.82q-0.43-1.58-.94-3.39T49,89.79c-0.19-.77-0.36-1.46-0.5-2.09A11.6,11.6,0,0,0,48,86q-1.3-5.48-2.74-11.82T42.66,62.41q-1.3,5.77-3,12.47T36.32,87.48Z"/><path class="cls-1" d="M102,130a9.24,9.24,0,0,1-3.1,1,26.38,26.38,0,0,1-5,.43,27.64,27.64,0,0,1-5.77-.72,44.27,44.27,0,0,1-.36-5.48q-0.08-3.6-.07-9.08V49.72a36.36,36.36,0,0,0-.43-5.91,31.43,31.43,0,0,0-1.15-4.76,5.62,5.62,0,0,1,2.23-1.95q1.51-.79,3.82-1.8a12,12,0,0,1,1.3-.29h0.58a5.53,5.53,0,0,1,3.31.94,7.59,7.59,0,0,1,2,2.09,45.63,45.63,0,0,1,8.65-4.32,37.53,37.53,0,0,1,4.25-1.15,23.18,23.18,0,0,1,4.68-.43,28.7,28.7,0,0,1,10,1.73,21,21,0,0,1,8.22,5.55,27,27,0,0,1,5.55,9.8,45.13,45.13,0,0,1,2,14.34q0,13.55-3.6,22.05a32.7,32.7,0,0,1-9.37,13.12,20.5,20.5,0,0,1-7.93,4.4,30.05,30.05,0,0,1-7.78,1.08q-7.06,0-11.24-2.45v24.93a14.75,14.75,0,0,1-.29,2.88ZM112,93.25a11.52,11.52,0,0,0,4.9-1.22,12.19,12.19,0,0,0,4.76-4.47,29.2,29.2,0,0,0,3.6-8.79,58,58,0,0,0,1.44-14.2q0-11.1-3.31-15.85A10.76,10.76,0,0,0,114,44a12.84,12.84,0,0,0-6.05,1.51,26.41,26.41,0,0,0-5,3.39v40.5a14.09,14.09,0,0,0,4,2.74A11.71,11.71,0,0,0,112,93.25Z"/><path class="cls-1" d="M188.95,3a2.76,2.76,0,0,1,.65,1.37,13.7,13.7,0,0,1,.07,1.51c-0.1.48-.19,0.94-0.29,1.37a15,15,0,0,1-.58,1.8,9.3,9.3,0,0,1-1.59,2.74,4.12,4.12,0,0,1-3.46.43,2.6,2.6,0,0,0-1.3-.43,18.66,18.66,0,0,0-2.52-.43,25.86,25.86,0,0,0-2.67-.14,14.44,14.44,0,0,0-4.11.58,8,8,0,0,0-3.53,2.23A12.43,12.43,0,0,0,167,18.52a23.66,23.66,0,0,0-1.15,7.13q-0.15,2.16-.14,4.11v4.4h6.2q2.45,0,5.33-.07t4.18-.22q-0.14,2.88-.43,4.76a14.07,14.07,0,0,1-.72,3,4,4,0,0,1-1.15,1.66,7.49,7.49,0,0,1-1.73,1l0.14-.14c-0.19.1-.48,0.22-0.87,0.36s-0.67.27-.87,0.36a32.07,32.07,0,0,1-4.54.29H165.6v13q0,7,.07,14.12t0.14,13.91q0.07,6.78.07,12.39a9.47,9.47,0,0,1-.22,1.8,2,2,0,0,1-1.51,1.51,38.71,38.71,0,0,1-5,.58c-1.78.09-3.1,0.14-4,.14a24.87,24.87,0,0,1-4.61-.43,8.81,8.81,0,0,1-.14-1.73V89.79c0-1.34,0-2.76.07-4.25s0.07-3,.07-4.54V63.56q0-4.76-.07-9.15t-0.07-9.3q-6.05-.29-8.79-2.31,0.29-2.16.58-3.46a5.69,5.69,0,0,1,.79-2,4,4,0,0,1,1.23-1.15,7,7,0,0,1,1.87-.72A7.61,7.61,0,0,1,147.8,35q0.93-.14,2.67-0.58,0-2.88.14-5.48t0.43-4.9v0.14a28.75,28.75,0,0,1,3.24-12,22.46,22.46,0,0,1,6.41-7.35,23.69,23.69,0,0,1,8.14-3.75A34.76,34.76,0,0,1,177.13,0a25.42,25.42,0,0,1,7.64.94,10.39,10.39,0,0,1,4,2.09h0.14Z"/><path class="cls-1" d="M233.34,67.6a53,53,0,0,1-2.16,15.93A32.9,32.9,0,0,1,225.12,95,25,25,0,0,1,216,101.9a28.27,28.27,0,0,1-11.46,2.3q-13.83,0-21.33-8.43t-7.49-27.31a53.54,53.54,0,0,1,2.16-16.07,31.39,31.39,0,0,1,6.05-11.31,24.12,24.12,0,0,1,9.22-6.63,31.17,31.17,0,0,1,11.82-2.16q14.27,0,21.33,8.94T233.34,67.6Zm-41.65.29a61.17,61.17,0,0,0,1,12.11,27,27,0,0,0,2.74,7.93,10.13,10.13,0,0,0,9.37,5.62,9.87,9.87,0,0,0,4.9-1.3,11.08,11.08,0,0,0,4-4.32,27.15,27.15,0,0,0,2.74-7.86,60.22,60.22,0,0,0,1-12q0-13.55-3.46-19.17t-9.51-5.62a9.45,9.45,0,0,0-4.9,1.37,11.94,11.94,0,0,0-4,4.25,26.34,26.34,0,0,0-2.81,7.64A52.05,52.05,0,0,0,191.68,67.88Z"/><path class="cls-1" d="M262.88,45.69a15.92,15.92,0,0,0-5.33.86,11.88,11.88,0,0,0-4.47,2.88v45.4a19.93,19.93,0,0,1-.22,3.1,6.82,6.82,0,0,1-1.22,2.81,6.35,6.35,0,0,1-1.8,1.08,9.55,9.55,0,0,1-2.45.5q-1.51.14-3.82,0.22t-5.76.07q0.14-5.76.21-13t0.07-15.57L238.23,50a28.25,28.25,0,0,0-.58-6.05,48.66,48.66,0,0,0-1.3-4.76,11.93,11.93,0,0,1,2.3-1.73,30,30,0,0,1,3.89-1.87,3.32,3.32,0,0,1,1.15-.29h0.87A6.81,6.81,0,0,1,248,36a4.82,4.82,0,0,1,1.8,2.23A25.14,25.14,0,0,1,254,35.74q2.23-1,4.25-1.73a20.56,20.56,0,0,1,4.11-1.08,14.16,14.16,0,0,1,4.25-.07q6.49,0.72,7.21,4a24.19,24.19,0,0,1-.51,4.25A11.77,11.77,0,0,1,271.24,46a3.27,3.27,0,0,1-1,.29h-1.3c-0.77,0-1.51,0-2.23-.07a19.47,19.47,0,0,1-1.95-.22,3.35,3.35,0,0,0-1.15-.29h-0.72Z"/><path class="cls-1" d="M322.26,102.47a11.09,11.09,0,0,1-2,.14H309.72q0.29-5.48.29-12.32V58.23q0-7.92-1.8-11.1T301.79,44a12.29,12.29,0,0,0-6.05,1.51A19,19,0,0,0,291,49.15V95.27a14.12,14.12,0,0,1-.29,3,5.54,5.54,0,0,1-1.3,2.45,6.06,6.06,0,0,1-1.87,1.08,13.25,13.25,0,0,1-2.45.58,25.5,25.5,0,0,1-3.67.22h-5.69q0.14-5.48.14-12.4V49.72a32.06,32.06,0,0,0-.51-6.05,38,38,0,0,0-1.22-4.76q1.44-1.73,6.2-3.6a3.34,3.34,0,0,1,1.15-.29h0.72a5.53,5.53,0,0,1,3.31.94,7.59,7.59,0,0,1,2,2.09,30.91,30.91,0,0,1,8.5-4.32,29.5,29.5,0,0,1,9.37-1.44h1.37a7.84,7.84,0,0,1,1.51.14,20.62,20.62,0,0,1,7.64,2,16.21,16.21,0,0,1,5,4,21.74,21.74,0,0,1,4.61-2.74q2.6-1.15,4.76-1.87a27.73,27.73,0,0,1,9.08-1.44h1.66a5.78,5.78,0,0,1,1.37.14h-0.14a20.48,20.48,0,0,1,8.36,2.31A13.63,13.63,0,0,1,355.84,40a22.56,22.56,0,0,1,2.59,7.71,63,63,0,0,1,.72,9.94V91.74q0,4.83.29,8.58a7.49,7.49,0,0,1-1.87,1.15,10.1,10.1,0,0,1-2.59.65q-1.59.22-3.89,0.36t-5.91.14a13.61,13.61,0,0,1-.94-2.45,10.76,10.76,0,0,1-.36-2.88V58.37q0-7.92-1.73-11.1t-6.34-3.17a11.86,11.86,0,0,0-6.12,1.66,22.38,22.38,0,0,0-5,4l0.43-.43V99.45Q325.14,101.76,322.26,102.47Z"/><path class="cls-1" d="M387.4,32.28q1.15,0,2.3.07a15.14,15.14,0,0,1,1.88.22q6.92,0.58,10.23,2.74t3.75,3.75a10.15,10.15,0,0,1-.87,3.6,17.24,17.24,0,0,1-2,3.75,9.54,9.54,0,0,0-1.37-.29q-0.94-.14-1.51-0.29-1.15-.29-2.38-0.5a13.32,13.32,0,0,1-2.38-.65,17.74,17.74,0,0,0-6.49-1.3,9,9,0,0,0-6,1.87A5.93,5.93,0,0,0,380.34,50a7.31,7.31,0,0,0,.79,3.31,11.4,11.4,0,0,0,3.1,3.46q1.15,0.86,2.74,2t3.32,2.31q2,1.59,4.25,3.17t4.11,3a27.18,27.18,0,0,1,6.77,7.64,17.22,17.22,0,0,1,2.16,8.5,19.58,19.58,0,0,1-1.95,9,18.29,18.29,0,0,1-5.4,6.41,24.18,24.18,0,0,1-8.07,3.89,36,36,0,0,1-9.8,1.3,36.72,36.72,0,0,1-12.47-1.95q-5.41-1.95-6.7-5a11.8,11.8,0,0,1,.79-3.82,14.82,14.82,0,0,1,2.09-4h1.44a9.5,9.5,0,0,1,4.32,1.3V90.51a30.12,30.12,0,0,0,5,1.66,22.24,22.24,0,0,0,5.26.65,11,11,0,0,0,1.23-.07c0.43,0,.89-0.12,1.37-0.22a7.27,7.27,0,0,0,5.12-2.38,8,8,0,0,0,1.8-5.41,8.83,8.83,0,0,0-1.23-4.54,13.44,13.44,0,0,0-4.25-4.11c-0.29-.19-0.7-0.48-1.23-0.86s-0.7-.48-0.5-0.29q-2.45-1.73-5.12-3.82t-4.68-3.82L371,64.42q-6.63-6.63-6.63-14,0-8.65,6.34-13.4T387.4,32.28Z"/></svg>